<?xml version="1.0" encoding="utf-8"?>
<!-- Generator: Adobe Illustrator 16.0.0, SVG Export Plug-In . SVG Version: 6.00 Build 0)  -->
<!DOCTYPE svg PUBLIC "-//W3C//DTD SVG 1.1//EN" "http://www.w3.org/Graphics/SVG/1.1/DTD/svg11.dtd">
<svg version="1.1" id="Layer_1" xmlns="http://www.w3.org/2000/svg" xmlns:xlink="http://www.w3.org/1999/xlink" x="0px" y="0px"
	 width="23.325px" height="13.524px" viewBox="0 0 23.325 13.524" enable-background="new 0 0 23.325 13.524" xml:space="preserve">
<path fill-rule="evenodd" clip-rule="evenodd" fill="#FFFFFF" d="M12.399,0.956c1.998-0.003,3.996-0.047,5.992,0.008
	c2.549,0.07,4.23,1.781,4.273,4.248c0.043,2.466-1.639,4.352-4.125,4.408c-3.328,0.078-6.658,0.018-9.986,0.021
	c-1.66,0.002-2.802-0.815-2.84-2.658c-0.038-1.84,1.05-2.756,2.724-2.77c2.664-0.021,5.326-0.018,7.989,0.003
	c0.523,0.004,1.231-0.245,1.243,0.799c0.012,1.05-0.692,0.817-1.223,0.821c-2.497,0.021-4.994,0.009-7.49,0.011
	C8.205,5.847,7.291,5.773,7.26,6.888C7.229,8.018,8.131,8,8.893,8c3.164,0.001,6.326,0.017,9.489-0.01
	c1.666-0.014,2.771-0.927,2.725-2.77c-0.045-1.847-1.203-2.636-2.861-2.632C14.251,2.598,10.254,2.538,6.26,2.613
	C3.892,2.659,2.245,4.456,2.184,6.801C2.12,9.25,3.814,11.169,6.293,11.232c3.327,0.083,6.658,0.009,9.987,0.035
	c0.583,0.005,1.455-0.334,1.376,0.908c-0.065,1.026-0.812,0.701-1.312,0.704c-3.496,0.024-6.994,0.113-10.485-0.027
	c-3.032-0.122-5.271-2.89-5.191-6.096c0.078-3.1,2.294-5.621,5.241-5.773C8.068,0.87,10.235,0.96,12.399,0.956z"/>
</svg>
