<?xml version="1.0" encoding="utf-8"?>
<!-- Generator: Adobe Illustrator 16.0.0, SVG Export Plug-In . SVG Version: 6.00 Build 0)  -->
<!DOCTYPE svg PUBLIC "-//W3C//DTD SVG 1.1//EN" "http://www.w3.org/Graphics/SVG/1.1/DTD/svg11.dtd">
<svg version="1.1" id="Layer_1" xmlns="http://www.w3.org/2000/svg" xmlns:xlink="http://www.w3.org/1999/xlink" x="0px" y="0px"
	 width="24.167px" height="23.75px" viewBox="0 0 24.167 23.75" enable-background="new 0 0 24.167 23.75" xml:space="preserve">
<g>
	<path fill="#FFFFFF" d="M8.138,9.06c0.031-0.569-0.114-0.528-0.631-0.528L2.883,8.54C2.73,8.492,2.574,8.692,2.604,8.893
		l-0.003,4.84c0.018,0.298-0.071,0.528,0.312,0.514L7.7,14.248c0.342,0.007,0.442,0.003,0.442-0.399L8.138,9.06z M6.985,13.371
		L3.667,13.37C3.401,13.38,3.463,13.22,3.45,13.014L3.453,9.66C3.433,9.52,3.541,9.381,3.646,9.415l3.205-0.006
		c0.358,0,0.459-0.028,0.438,0.366l0.003,3.319C7.292,13.373,7.223,13.375,6.985,13.371z"/>
	<path fill="#FFFFFF" d="M8.138,16.56c0.031-0.568-0.114-0.527-0.631-0.527l-4.624,0.008c-0.152-0.049-0.309,0.152-0.279,0.354
		l-0.003,4.84c0.018,0.297-0.071,0.527,0.312,0.514H7.7c0.342,0.008,0.442,0.004,0.442-0.398L8.138,16.56z M6.985,20.871H3.667
		c-0.266,0.01-0.204-0.15-0.217-0.355l0.003-3.355c-0.021-0.139,0.088-0.277,0.193-0.244l3.205-0.006
		c0.358,0,0.459-0.029,0.438,0.365l0.003,3.32C7.292,20.873,7.223,20.876,6.985,20.871z"/>
	<path fill="#FFFFFF" d="M2.425,4.652c0,0-0.044-1.026,0.804-0.714L4.367,5.21c0,0,0.156,0.29,0.357,0l3.749-4.442
		c0,0,0.916-0.356,0.715,0.67L5.015,6.416c0,0-0.491,0.625-0.804,0.111L2.425,4.652z"/>
	<path fill="#FFFFFF" d="M22.425,3.259c0,0.254-0.206,0.46-0.46,0.46H10.519c-0.254,0-0.46-0.206-0.46-0.46l0,0
		c0-0.254,0.206-0.46,0.46-0.46h11.446C22.219,2.799,22.425,3.005,22.425,3.259L22.425,3.259z"/>
	<path fill="#FFFFFF" d="M22.425,10.938c0,0.254-0.206,0.459-0.46,0.459H10.519c-0.254,0-0.46-0.205-0.46-0.459l0,0
		c0-0.254,0.206-0.46,0.46-0.46h11.446C22.219,10.478,22.425,10.684,22.425,10.938L22.425,10.938z"/>
	<path fill="#FFFFFF" d="M22.425,18.437c0,0.254-0.206,0.461-0.46,0.461H10.519c-0.254,0-0.46-0.207-0.46-0.461l0,0
		c0-0.254,0.206-0.459,0.46-0.459h11.446C22.219,17.978,22.425,18.183,22.425,18.437L22.425,18.437z"/>
</g>
</svg>
