<?xml version="1.0" encoding="utf-8"?>
<!-- Generator: Adobe Illustrator 16.0.0, SVG Export Plug-In . SVG Version: 6.00 Build 0)  -->
<!DOCTYPE svg PUBLIC "-//W3C//DTD SVG 1.1//EN" "http://www.w3.org/Graphics/SVG/1.1/DTD/svg11.dtd">
<svg version="1.1" id="Layer_1" xmlns="http://www.w3.org/2000/svg" xmlns:xlink="http://www.w3.org/1999/xlink" x="0px" y="0px"
	 width="25.125px" height="22.0717773px" viewBox="0 0 25.125 22.0717773" enable-background="new 0 0 25.125 22.0717773"
	 xml:space="preserve">
<g>
	<path fill-rule="evenodd" clip-rule="evenodd" fill="#666666" d="M21.9462891,11.4726562
		c-1.4550781-1.3740234-2.8916016-2.7158203-4.3085938-4.0771484c-0.5556641-0.5332031-1.3789062-1.03125-0.6552734-1.9716797
		c0.4794922-0.6220703,1.1796875-0.4765625,2.1113281,0.3974609c1.6708984,1.5683594,3.3417969,3.1396484,5.0029297,4.7207031
		c0.765625,0.7285156,0.7841797,1.2324219,0.0537109,1.9277344c-1.7744141,1.6914062-3.5654297,3.3681641-5.3505859,5.0483398
		c-0.0917969,0.0878906-0.1845703,0.1796875-0.2890625,0.25c-0.5546875,0.3691406-1.1005859,0.34375-1.5449219-0.1542969
		c-0.4384766-0.4921875-0.3251953-1.0024414,0.1269531-1.4350586c1.1972656-1.1445312,2.4082031-2.2744141,3.6054688-3.4189453
		C21.0878906,12.3876953,21.4501953,11.9863281,21.9462891,11.4726562z"/>
	<path fill-rule="evenodd" clip-rule="evenodd" fill="#666666" d="M15.4921875,1.7451172
		c-0.5039062,2.3212891-0.9511719,4.4033203-1.4082031,6.4824219c-0.8232422,3.7568359-1.6445312,7.5136719-2.4892578,11.2651367
		c-0.1591797,0.7089844-0.1708984,1.7402344-1.2783203,1.5097656c-1.1220703-0.234375-0.6972656-1.1640625-0.5410156-1.8828125
		c1.2197266-5.5893555,2.4492188-11.1762695,3.6777344-16.7631836c0.0537109-0.2490234,0.0390625-0.5888672,0.1953125-0.7226562
		c0.3212891-0.2763672,0.7451172-0.6152344,1.1113281-0.5976562C15.0478516,1.0498047,15.3125,1.5576172,15.4921875,1.7451172z"/>
	<path fill-rule="evenodd" clip-rule="evenodd" fill="#666666" d="M3.1943359,11.4941406
		c1.5908203,1.5166016,3.0791016,2.9482422,4.5849609,4.3613281c0.5605469,0.5263672,0.9970703,1.105957,0.3613281,1.7856445
		c-0.6220703,0.6679688-1.2578125,0.3378906-1.8242188-0.203125c-1.7509766-1.6694336-3.515625-3.3237305-5.2607422-5.0004883
		c-0.6992188-0.6728516-0.7021484-1.1992188-0.0097656-1.8662109c1.7646484-1.7011719,3.546875-3.3847656,5.3203125-5.078125
		c0.5527344-0.5273438,1.1865234-0.7382812,1.7646484-0.1513672c0.6162109,0.6259766,0.2626953,1.203125-0.2822266,1.7177734
		C6.3222656,8.5009766,4.8095703,9.9541016,3.1943359,11.4941406z"/>
</g>
</svg>
