<?xml version="1.0" encoding="utf-8"?>
<!-- Generator: Adobe Illustrator 16.0.0, SVG Export Plug-In . SVG Version: 6.00 Build 0)  -->
<!DOCTYPE svg PUBLIC "-//W3C//DTD SVG 1.1//EN" "http://www.w3.org/Graphics/SVG/1.1/DTD/svg11.dtd">
<svg version="1.1" id="Layer_1" xmlns="http://www.w3.org/2000/svg" xmlns:xlink="http://www.w3.org/1999/xlink" x="0px" y="0px"
	 width="17.875px" height="22.8125px" viewBox="0 0 17.875 22.8125" enable-background="new 0 0 17.875 22.8125"
	 xml:space="preserve">
<g>
	<path fill="#666666" d="M14.3115234,12.7954102c0,0.2744141-0.2304688,0.4970703-0.5136719,0.4970703H4.0244141
		c-0.2851562,0-0.5136719-0.2226562-0.5136719-0.4970703l0,0c0-0.2724609,0.2285156-0.4970703,0.5136719-0.4970703h9.7734375
		C14.0810547,12.2983398,14.3115234,12.5229492,14.3115234,12.7954102L14.3115234,12.7954102z"/>
	<path fill="#666666" d="M14.3115234,15.3452148c0,0.2744141-0.2304688,0.4960938-0.5136719,0.4960938H4.0244141
		c-0.2851562,0-0.5136719-0.2216797-0.5136719-0.4960938l0,0c0-0.2734375,0.2285156-0.4980469,0.5136719-0.4980469h9.7734375
		C14.0810547,14.847168,14.3115234,15.0717773,14.3115234,15.3452148L14.3115234,15.3452148z"/>
	<path fill="#666666" d="M14.3115234,17.9238281c0,0.2753906-0.2304688,0.4980469-0.5136719,0.4980469H4.0244141
		c-0.2851562,0-0.5136719-0.2226562-0.5136719-0.4980469l0,0c0-0.2753906,0.2285156-0.4960938,0.5136719-0.4960938h9.7734375
		C14.0810547,17.4277344,14.3115234,17.6484375,14.3115234,17.9238281L14.3115234,17.9238281z"/>
	<path fill="#666666" d="M10.8330078,4.6635742c0,0.2744141-0.15625,0.4960938-0.3476562,0.4960938H3.8583984
		c-0.1933594,0-0.3476562-0.2216797-0.3476562-0.4960938l0,0c0-0.2734375,0.1542969-0.4980469,0.3476562-0.4980469h6.6269531
		C10.6767578,4.1655273,10.8330078,4.3901367,10.8330078,4.6635742L10.8330078,4.6635742z"/>
	<path fill="#666666" d="M10.8330078,6.965332c0,0.2744141-0.15625,0.4970703-0.3476562,0.4970703H3.8583984
		c-0.1933594,0-0.3476562-0.2226562-0.3476562-0.4970703l0,0c0-0.2734375,0.1542969-0.4970703,0.3476562-0.4970703h6.6269531
		C10.6767578,6.4682617,10.8330078,6.6918945,10.8330078,6.965332L10.8330078,6.965332z"/>
	<path fill="#666666" d="M13.1552734,0.4682617H0.9560547c0,0-0.4648438-0.046875-0.5058594,0.4326172v21.2338867
		c0,0-0.0097656,0.3632812,0.5058594,0.3300781l15.9628906-0.015625c0,0,0.5136719-0.0507812,0.5976562-0.4960938V5.0102539
		L13.1552734,0.4682617z M16.2861328,21.2890625H1.6005859V1.581543h11.1074219l3.6308594,3.7109375L16.2861328,21.2890625z"/>
</g>
</svg>
