<?xml version="1.0" encoding="utf-8"?>
<!-- Generator: Adobe Illustrator 16.0.0, SVG Export Plug-In . SVG Version: 6.00 Build 0)  -->
<!DOCTYPE svg PUBLIC "-//W3C//DTD SVG 1.1//EN" "http://www.w3.org/Graphics/SVG/1.1/DTD/svg11.dtd">
<svg version="1.1" id="Layer_1" xmlns="http://www.w3.org/2000/svg" xmlns:xlink="http://www.w3.org/1999/xlink" x="0px" y="0px"
	 width="31.834px" height="15.083px" viewBox="0 0 31.834 15.083" enable-background="new 0 0 31.834 15.083" xml:space="preserve">
<g>
	<path fill-rule="evenodd" clip-rule="evenodd" fill="#FFFFFF" d="M16.116,14c-4.454,0-8.91-0.027-13.363,0.02
		c-1.211,0.014-1.72-0.363-1.697-1.633C1.113,9.014,1.104,5.639,1.06,2.267C1.043,1.112,1.427,0.64,2.63,0.644
		c8.953,0.031,17.906,0.031,26.859,0c1.211-0.004,1.58,0.479,1.564,1.627c-0.046,3.286-0.012,6.575-0.017,9.862
		c-0.003,1.748-0.111,1.861-1.815,1.865C24.854,14.002,20.485,14,16.116,14z M29.288,2.458c-8.894,0-17.651,0-26.419,0
		c0,3.314,0,6.533,0,9.753c8.853,0,17.611,0,26.419,0C29.288,8.936,29.288,5.746,29.288,2.458z"/>
	<path fill="#FFFFFF" d="M22.792,6.488l1.839,1.84h0.606l1.732-1.84c0,0,0.454-0.584-0.304-0.715h-3.485
		C23.181,5.773,22.467,5.84,22.792,6.488z"/>
</g>
</svg>
