<?xml version="1.0" encoding="utf-8"?>
<!-- Generator: Adobe Illustrator 16.0.0, SVG Export Plug-In . SVG Version: 6.00 Build 0)  -->
<!DOCTYPE svg PUBLIC "-//W3C//DTD SVG 1.1//EN" "http://www.w3.org/Graphics/SVG/1.1/DTD/svg11.dtd">
<svg version="1.1" id="Layer_1" xmlns="http://www.w3.org/2000/svg" xmlns:xlink="http://www.w3.org/1999/xlink" x="0px" y="0px"
	 width="26px" height="12.166px" viewBox="0 0 26 12.166" enable-background="new 0 0 26 12.166" xml:space="preserve">
<g>
	<g>
		<path fill="#444444" d="M6.868,9.539c-2.317,0-4.194-1.439-4.194-3.219V5.865c0-1.777,1.877-3.219,4.194-3.219h4.935v-1.9H5.746
			c-2.759,0-4.995,2.236-4.995,4.995v0.707c0,2.758,2.236,4.994,4.995,4.994h6.057V9.539H6.868z"/>
		<path fill="#444444" d="M19.757,0.746H13.7v1.9h4.935c2.316,0,4.194,1.442,4.194,3.219V6.32c0,1.779-1.878,3.219-4.194,3.219H13.7
			v1.902h6.057c2.759,0,4.994-2.236,4.994-4.994V5.74C24.751,2.982,22.516,0.746,19.757,0.746z"/>
	</g>
	<rect x="7.315" y="5.145" fill="#444444" width="10.874" height="1.898"/>
</g>
</svg>
