<?xml version="1.0" encoding="utf-8"?>
<!-- Generator: Adobe Illustrator 16.0.0, SVG Export Plug-In . SVG Version: 6.00 Build 0)  -->
<!DOCTYPE svg PUBLIC "-//W3C//DTD SVG 1.1//EN" "http://www.w3.org/Graphics/SVG/1.1/DTD/svg11.dtd">
<svg version="1.1" id="Layer_1" xmlns="http://www.w3.org/2000/svg" xmlns:xlink="http://www.w3.org/1999/xlink" x="0px" y="0px"
	 width="17.866px" height="12.531px" viewBox="0 0 17.866 12.531" enable-background="new 0 0 17.866 12.531" xml:space="preserve">
<path fill="#FFFFFF" d="M17.238,10.93l-0.015-9.754l-3.211,3.549h-0.836V1.311c0-0.474-0.206-0.586-0.206-0.586H1.12
	c-0.395,0-0.383,0.522-0.383,0.522L0.731,11.28c-0.004,0.537,0.493,0.444,0.493,0.444h11.885c0.43,0,0.458-0.405,0.458-0.405
	l-0.014-3.606l0.459-0.011L17.238,10.93z M9.854,6.358L5.77,9.256c0,0-0.21,0.142-0.238-0.178L5.53,3.562
	c0,0-0.004-0.199,0.133-0.115l4.191,2.696C9.854,6.143,10.006,6.232,9.854,6.358z"/>
</svg>
