<?xml version="1.0" encoding="utf-8"?>
<!-- Generator: Adobe Illustrator 16.0.0, SVG Export Plug-In . SVG Version: 6.00 Build 0)  -->
<!DOCTYPE svg PUBLIC "-//W3C//DTD SVG 1.1//EN" "http://www.w3.org/Graphics/SVG/1.1/DTD/svg11.dtd">
<svg version="1.1" id="Layer_1" xmlns="http://www.w3.org/2000/svg" xmlns:xlink="http://www.w3.org/1999/xlink" x="0px" y="0px"
	 width="21.833px" height="21.667px" viewBox="0 0 21.833 21.667" enable-background="new 0 0 21.833 21.667" xml:space="preserve">
<g>
	<path fill="#FFFFFF" d="M21.024,20.097V1.8c0-0.98-1.162-0.967-1.162-0.967H1.942C0.963,1.079,0.963,2.087,0.963,2.087v18.01
		c0,0.85,0.508,0.799,0.508,0.799h18.965C21.169,20.896,21.024,20.097,21.024,20.097z M18.788,2.05c0,0,1.021-0.012,1.021,0.85
		v16.078c0,0,0.164,0.957-0.479,0.957H2.825c0,0-0.666,0.049-0.645-0.957V3.014c0,0-0.141-0.75,0.723-0.964"/>
	<path fill="#FFFFFF" d="M5.959,11.707c0,0.336-0.273,0.607-0.607,0.607l0,0c-0.336,0-0.607-0.271-0.607-0.607V3.949
		c0-0.336,0.271-0.607,0.607-0.607l0,0c0.334,0,0.607,0.271,0.607,0.607V11.707z"/>
</g>
</svg>
