<?xml version="1.0" encoding="utf-8"?>
<!-- Generator: Adobe Illustrator 16.0.0, SVG Export Plug-In . SVG Version: 6.00 Build 0)  -->
<!DOCTYPE svg PUBLIC "-//W3C//DTD SVG 1.1//EN" "http://www.w3.org/Graphics/SVG/1.1/DTD/svg11.dtd">
<svg version="1.1" id="Layer_1" xmlns="http://www.w3.org/2000/svg" xmlns:xlink="http://www.w3.org/1999/xlink" x="0px" y="0px"
	 width="17.9375px" height="24.8125px" viewBox="0 0 17.9375 24.8125" enable-background="new 0 0 17.9375 24.8125"
	 xml:space="preserve">
<g>
	<path fill-rule="evenodd" clip-rule="evenodd" fill="#666666" d="M1.7363281,2.9702148
		c-0.3330078-0.0302734-0.6796875-0.0625-1.1542969-0.1064453C0.5576172,2.4956055,0.5332031,2.1196289,0.5068359,1.7446289
		C0.4394531,0.7875977,0.8710938,0.3969727,1.8388672,0.4067383C5.09375,0.4360352,8.3496094,0.418457,11.6054688,0.418457
		c1.2519531,0.0009766,2.5039062-0.0019531,3.7568359,0c1.9863281,0.0019531,2.2373047,0.3291016,1.8232422,2.4492188
		c-0.3564453,0.0332031-0.7324219,0.0693359-1.0986328,0.1035156c-0.140625,1.0820312-0.2089844,2.1152344-0.4189453,3.1191406
		C15.25,8.0883789,14.0371094,9.6293945,12.6757812,11.0825195c-1.1240234,1.2011719-1.1445312,1.4980469,0.0175781,2.6699219
		c2.2216797,2.2382812,3.4638672,4.862793,3.2675781,8.0932617c0.4667969,0.0410156,0.8134766,0.0703125,1.2949219,0.1113281
		c0.0214844,0.4414062,0.0488281,0.8886719,0.0634766,1.3359375c0.0253906,0.7617188-0.3652344,1.1132812-1.1113281,1.1132812
		c-4.8652344-0.0019531-9.7304688-0.0019531-14.5966797-0.0039062c-0.7490234,0-1.1181641-0.3730469-1.1054688-1.1269531
		c0.0068359-0.4179688,0.0009766-0.8359375,0.0009766-1.296875c0.4775391-0.046875,0.8251953-0.0800781,1.2832031-0.1269531
		c0.0449219-0.6503906,0.0693359-1.3144531,0.140625-1.9726562c0.2607422-2.4291992,1.5087891-4.3393555,3.15625-6.0600586
		c1.2353516-1.2900391,1.203125-1.515625-0.0087891-2.8339844C2.7734375,8.4750977,2.6347656,8.1450195,1.7363281,2.9702148z
		 M14.7148438,2.996582c-3.9306641,0-7.7412109,0-11.5410156,0c-0.2695312,2.3378906,0.359375,4.34375,1.8925781,6.1181641
		c0.4912109,0.5693359,1.0166016,1.109375,1.4912109,1.6914062c0.8574219,1.0498047,0.8554688,2.1689453-0.0068359,3.2207031
		c-0.5224609,0.6357422-1.1074219,1.2207031-1.6289062,1.8564453C3.5,17.6176758,2.8876953,19.5898438,3.1435547,21.828125
		c3.9082031,0,7.7177734,0,11.5605469,0c0.2246094-2.3320312-0.4150391-4.3100586-1.8681641-6.0317383
		c-0.5302734-0.6289062-1.1142578-1.2148438-1.6279297-1.8574219c-0.7675781-0.9609375-0.7666016-2.0927734,0.0029297-3.0556641
		c0.5136719-0.6425781,1.0986328-1.2285156,1.6279297-1.8574219C14.2910156,7.3012695,14.9101562,5.315918,14.7148438,2.996582z"/>
	<path fill-rule="evenodd" clip-rule="evenodd" fill="#666666" d="M8.9208984,15.8852539
		c1.2324219,1.171875,2.421875,2.2402344,3.5322266,3.3881836c0.5048828,0.5214844,0.2138672,0.96875-0.4589844,0.9804688
		c-2.0351562,0.0332031-4.0712891,0.0214844-6.1074219-0.0117188c-0.2304688-0.0039062-0.5419922-0.203125-0.65625-0.4023438
		c-0.0771484-0.1347656,0.0615234-0.4941406,0.2128906-0.6425781C6.5605469,18.1040039,7.7041016,17.0375977,8.9208984,15.8852539z"
		/>
	<path fill-rule="evenodd" clip-rule="evenodd" fill="#666666" d="M9.1630859,10.4770508
		c-0.7587891-0.609375-1.4697266-1.1464844-2.1347656-1.7363281C6.8505859,8.5825195,6.8144531,8.2661133,6.7138672,8.0239258
		C6.9345703,7.9399414,7.1533203,7.7895508,7.375,7.7856445c1.2548828-0.0234375,2.5117188-0.0107422,3.7666016-0.0107422
		c0.0478516,0.1298828,0.0966797,0.2607422,0.1445312,0.3916016C10.5175781,9.0024414,9.7490234,9.8383789,9.1630859,10.4770508z"/>
</g>
</svg>
