<?xml version="1.0" encoding="utf-8"?>
<!-- Generator: Adobe Illustrator 16.0.0, SVG Export Plug-In . SVG Version: 6.00 Build 0)  -->
<!DOCTYPE svg PUBLIC "-//W3C//DTD SVG 1.1//EN" "http://www.w3.org/Graphics/SVG/1.1/DTD/svg11.dtd">
<svg version="1.1" id="Layer_1" xmlns="http://www.w3.org/2000/svg" xmlns:xlink="http://www.w3.org/1999/xlink" x="0px" y="0px"
	 width="24.167px" height="23.75px" viewBox="0 0 24.167 23.75" enable-background="new 0 0 24.167 23.75" xml:space="preserve">
<g>
	<path fill="#FFFFFF" d="M22.927,3.23c0,0.271-0.221,0.491-0.492,0.491H10.753c-0.271,0-0.492-0.22-0.492-0.491l0,0
		c0-0.271,0.221-0.492,0.492-0.492h11.682C22.706,2.738,22.927,2.958,22.927,3.23L22.927,3.23z"/>
	<path fill="#FFFFFF" d="M5.379,0.708c-1.676,0-3.035,1.359-3.035,3.036s1.359,3.036,3.035,3.036c1.678,0,3.036-1.359,3.036-3.036
		S7.057,0.708,5.379,0.708z M5.379,5.75c-1.107,0-2.006-0.898-2.006-2.006c0-1.108,0.898-2.006,2.006-2.006s2.006,0.897,2.006,2.006
		C7.385,4.852,6.487,5.75,5.379,5.75z"/>
	<path fill="#FFFFFF" d="M22.927,11.162c0,0.271-0.221,0.491-0.492,0.491H10.753c-0.271,0-0.492-0.22-0.492-0.491l0,0
		c0-0.271,0.221-0.492,0.492-0.492h11.682C22.706,10.669,22.927,10.89,22.927,11.162L22.927,11.162z"/>
	<path fill="#FFFFFF" d="M5.379,8.64c-1.676,0-3.035,1.359-3.035,3.036s1.359,3.036,3.035,3.036c1.678,0,3.036-1.359,3.036-3.036
		S7.057,8.64,5.379,8.64z M5.379,13.681c-1.107,0-2.006-0.898-2.006-2.005c0-1.108,0.898-2.006,2.006-2.006s2.006,0.897,2.006,2.006
		C7.385,12.783,6.487,13.681,5.379,13.681z"/>
	<path fill="#FFFFFF" d="M22.927,18.908c0,0.271-0.221,0.492-0.492,0.492H10.753c-0.271,0-0.492-0.221-0.492-0.492l0,0
		c0-0.271,0.221-0.492,0.492-0.492h11.682C22.706,18.416,22.927,18.636,22.927,18.908L22.927,18.908z"/>
	<path fill="#FFFFFF" d="M5.379,16.386c-1.676,0-3.035,1.359-3.035,3.037c0,1.676,1.359,3.035,3.035,3.035
		c1.678,0,3.036-1.359,3.036-3.035C8.415,17.746,7.057,16.386,5.379,16.386z M5.379,21.429c-1.107,0-2.006-0.898-2.006-2.006
		s0.898-2.006,2.006-2.006s2.006,0.898,2.006,2.006S6.487,21.429,5.379,21.429z"/>
</g>
</svg>
