<?xml version="1.0" encoding="utf-8"?>
<!-- Generator: Adobe Illustrator 16.0.0, SVG Export Plug-In . SVG Version: 6.00 Build 0)  -->
<!DOCTYPE svg PUBLIC "-//W3C//DTD SVG 1.1//EN" "http://www.w3.org/Graphics/SVG/1.1/DTD/svg11.dtd">
<svg version="1.1" id="Layer_1" xmlns="http://www.w3.org/2000/svg" xmlns:xlink="http://www.w3.org/1999/xlink" x="0px" y="0px"
	 width="26px" height="15.5px" viewBox="0 0 26 15.5" enable-background="new 0 0 26 15.5" xml:space="preserve">
<g>
	<path fill-rule="evenodd" clip-rule="evenodd" fill="#FFFFFF" d="M18.354,14.539c-1.236,0.006-2.472,0.012-3.707,0.019
		c-0.412-0.004-0.824-0.008-1.236-0.011c-1.235,0.003-2.471,0.007-3.706,0.011c-0.412-0.004-0.824-0.008-1.236-0.011
		c-1.235,0.003-2.471,0.007-3.706,0.011c-0.413-0.004-0.824-0.008-1.237-0.011c-0.442-0.018-0.887-0.053-1.329-0.049
		c-0.498,0.004-0.883-0.112-0.938-0.693c-0.002-0.414-0.005-0.827-0.007-1.24c0.002-1.234,0.004-2.469,0.007-3.701
		C1.3,8.475,1.342,8.088,1.383,7.699L1.321,7.643l0.055,0.064c0.561-0.036,1.121-0.07,1.681-0.108
		c0.186-0.013,0.883,0.03,0.736-0.149c-0.57-0.696,0.192-1.402-0.299-2.051c0.011-0.613,0.017-1.227,0.03-1.84
		c0.038-1.574,0.79-2.311,2.362-2.33C6.5,1.222,7.111,1.197,7.726,1.18C8.138,1.182,8.55,1.184,8.963,1.186
		c1.234-0.002,2.47-0.004,3.705-0.006c0.412,0.003,0.824,0.006,1.236,0.01c1.235-0.005,2.471-0.009,3.706-0.014
		c0.412,0.005,0.825,0.009,1.237,0.014c1.235-0.004,2.471-0.009,3.705-0.012c0.413,0.003,0.825,0.008,1.237,0.012
		c1.419-0.151,1.258,0.859,1.277,1.736c0.002,0.414,0.004,0.828,0.007,1.241c-0.017,1.235-0.033,2.47-0.05,3.704
		c-0.177,0.102-0.354,0.203-0.531,0.305c-1.131,0.004-2.262,0.008-3.393,0.014c-0.604-0.164-0.893,0.008-0.717,0.674
		c-0.003,1.15-0.006,2.303-0.01,3.454C20.281,13.586,19.509,14.236,18.354,14.539z M22.804,7.099
		c1.065,0.263,1.428-0.173,1.191-1.202c-0.003-0.414-0.005-0.827-0.007-1.24c0.015-0.443,0.086-0.896,0.026-1.328
		c-0.054-0.391,0.357-1.016-0.506-1.095c-0.836-0.077-0.789,0.431-0.783,0.983c0.003,0.315,0.015,0.671-0.455,0.709
		c-0.626,0.053-0.406-0.449-0.5-0.748c-0.065-0.256,0.339-0.781-0.235-0.715c-0.383,0.045-1.029-0.484-1.203,0.348
		c-0.125,0.608-0.486,0.445-0.553,0.061c-0.129-0.738-0.601-0.643-1.09-0.631c-0.674,0.016-0.465,0.527-0.518,0.9
		c-0.041,0.294,0.123,0.774-0.375,0.744c-0.432-0.025-0.333-0.479-0.367-0.795c-0.036-0.334,0.152-0.832-0.439-0.827
		c-0.426,0.003-0.983-0.274-1.107,0.559c-0.096,0.642-0.584,0.479-0.652,0.001c-0.117-0.819-0.666-0.574-1.101-0.572
		c-0.695,0.006-0.387,0.574-0.458,0.924c-0.06,0.289,0.121,0.77-0.403,0.714c-0.455-0.048-0.298-0.497-0.346-0.804
		c-0.049-0.32,0.193-0.844-0.417-0.826c-0.408,0.014-1.068-0.318-1.086,0.549c-0.004,0.23-0.154,0.383-0.397,0.367
		c-0.175-0.012-0.319-0.125-0.312-0.314c0.031-0.841-0.588-0.604-1.032-0.615c-0.704-0.018-0.443,0.537-0.49,0.893
		C9.147,3.451,9.249,3.9,8.786,3.893c-0.492-0.01-0.291-0.483-0.344-0.774c-0.06-0.326,0.181-0.842-0.4-0.857
		C7.623,2.25,7.066,1.971,6.89,2.773C6.765,3.338,6.344,3.436,6.207,2.736c-0.089-0.453-0.312-0.514-0.68-0.484
		C5.071,2.288,4.743,2.5,4.599,2.938C4.273,3.926,4.852,4.645,6.001,4.646c3.911,0.009,7.822,0.018,11.733-0.008
		C18.5,4.633,19.19,4.76,19.82,5.191c0.162,0.326,0.478,0.661,0.457,0.975c-0.071,1.08,0.527,1.079,1.285,0.924
		C21.977,7.093,22.39,7.096,22.804,7.099z M6.238,7.543c0.415,0.002,0.83,0.006,1.245,0.009c1.232-0.003,2.465-0.007,3.698-0.009
		c0.414,0.002,0.83,0.006,1.244,0.009c1.232-0.003,2.466-0.007,3.698-0.009c0.697,0.018,1.396,0.058,2.092,0.05
		c0.665-0.009,1.138-0.329,1.105-1.037c-0.03-0.636-0.477-0.916-1.1-0.906c-0.286,0.005-0.573,0.022-0.86,0.035
		c-1.233,0.003-2.467,0.005-3.701,0.008c-0.413-0.003-0.827-0.005-1.24-0.008c-1.234,0.003-2.469,0.005-3.703,0.008
		c-0.413-0.003-0.826-0.005-1.24-0.008c-0.956,0-1.912,0-2.869-0.003C4.49,7.932,4.366,7.624,6.238,7.543z M19.301,10.592
		c-0.003-0.413-0.006-0.826-0.008-1.24c-0.072-0.305,0.342-0.965-0.326-0.816c-0.456,0.102-1.482-0.461-1.39,0.766
		c0.027,0.35,0.11,0.903-0.345,0.914c-0.619,0.015-0.356-0.597-0.396-0.953c-0.036-0.33,0.019-0.715-0.472-0.648
		c-0.35,0.047-0.874-0.292-1.009,0.33c-0.066,0.309-0.186,0.525-0.464,0.658c-0.133-0.097-0.375-0.189-0.379-0.293
		c-0.036-0.881-0.672-0.768-1.2-0.701c-0.735,0.094-0.278,0.711-0.391,1.08c-0.064,0.209,0.084,0.52-0.288,0.552
		c-0.347-0.147-0.291-0.453-0.331-0.733c-0.052-0.35,0.227-0.92-0.471-0.901c-0.425,0.011-0.917-0.24-1.129,0.546
		c-0.186,0.69-0.496,0.335-0.695-0.145C9.645,8.127,8.876,8.732,8.303,8.619c-0.338-0.065-0.33,0.219-0.251,0.496
		c0.341,1.211,0.222,2.445,0.083,3.662c-0.064,0.556,0.036,0.748,0.599,0.724c0.982-0.043,1.966-0.048,2.949-0.068
		c1.15,0.077,2.301,0.111,3.449-0.019c0.497,0.115,0.995,0.107,1.494,0.019c2.568,0.179,2.751,0.013,2.707-2.479
		C19.332,10.834,19.312,10.713,19.301,10.592z M2.33,10.835c-0.014,0.575,0.016,1.156-0.052,1.726
		c-0.094,0.783,0.22,0.996,0.97,0.95c1.025-0.063,2.059-0.019,3.088-0.019c0.334-0.001,0.768,0.014,0.678-0.457
		c-0.101-0.527,0.153-0.949,0.221-1.421c0.389-2.728,0.014-3.134-2.723-2.97C2.223,8.545,2.223,8.545,2.33,10.835z"/>
	<path fill-rule="evenodd" clip-rule="evenodd" fill="#FFFFFF" d="M3.217,10.586c0.211-0.484,0.572-0.815,1.047-1.033
		c0.742-0.024,1.391,0.166,1.677,0.922c0.197,0.518,0.124,1.041-0.278,1.472c-0.403,0.431-0.914,0.529-1.45,0.37
		C3.353,12.062,3.188,11.371,3.217,10.586z"/>
	<rect x="1.376" y="7.543" fill-rule="evenodd" clip-rule="evenodd" fill="#FFFFFF" width="18.998" height="1.236"/>
	<rect x="1.074" y="7.543" fill-rule="evenodd" clip-rule="evenodd" fill="#FFFFFF" width="1.4" height="6.957"/>
	<rect x="2.166" y="13.309" fill-rule="evenodd" clip-rule="evenodd" fill="#FFFFFF" width="5.529" height="0.711"/>
	<rect x="6.923" y="8.161" fill-rule="evenodd" clip-rule="evenodd" fill="#FFFFFF" width="1.35" height="5.363"/>
	<rect x="7.88" y="13.309" fill-rule="evenodd" clip-rule="evenodd" fill="#FFFFFF" width="10.919" height="0.711"/>
	<rect x="20.301" y="6.644" fill-rule="evenodd" clip-rule="evenodd" fill="#FFFFFF" width="3.952" height="0.765"/>
	<rect x="23.852" y="1.971" fill-rule="evenodd" clip-rule="evenodd" fill="#FFFFFF" width="0.71" height="4.673"/>
	<rect x="3.483" y="5.091" fill-rule="evenodd" clip-rule="evenodd" fill="#FFFFFF" width="0.618" height="2.452"/>
	<rect x="20.053" y="7.865" fill-rule="evenodd" clip-rule="evenodd" fill="#FFFFFF" width="4.774" height="0.296"/>
</g>
</svg>
