<?xml version="1.0" encoding="utf-8"?>
<!-- Generator: Adobe Illustrator 16.0.0, SVG Export Plug-In . SVG Version: 6.00 Build 0)  -->
<!DOCTYPE svg PUBLIC "-//W3C//DTD SVG 1.1//EN" "http://www.w3.org/Graphics/SVG/1.1/DTD/svg11.dtd">
<svg version="1.1" id="Layer_1" xmlns="http://www.w3.org/2000/svg" xmlns:xlink="http://www.w3.org/1999/xlink" x="0px" y="0px"
	 width="41.75px" height="9.25px" viewBox="0 0 41.75 9.25" enable-background="new 0 0 41.75 9.25" xml:space="preserve">
<g>
	<polygon fill="#FFFFFF" points="4.329,1.159 5.34,3.206 7.599,3.535 5.964,5.129 6.35,7.379 4.329,6.316 2.308,7.379 2.693,5.129 
		1.059,3.535 3.318,3.206 	"/>
	<polygon fill="#FFFFFF" points="12.693,1.159 13.704,3.206 15.964,3.535 14.329,5.129 14.715,7.379 12.693,6.316 10.673,7.379 
		11.059,5.129 9.424,3.535 11.683,3.206 	"/>
	<polygon fill="#FFFFFF" points="21.059,1.159 22.069,3.206 24.329,3.535 22.693,5.129 23.08,7.379 21.059,6.316 19.037,7.379 
		19.424,5.129 17.788,3.535 20.048,3.206 	"/>
	<polygon fill="#FFFFFF" points="29.424,1.159 30.435,3.206 32.693,3.535 31.059,5.129 31.444,7.379 29.424,6.316 27.402,7.379 
		27.788,5.129 26.153,3.535 28.413,3.206 	"/>
	<polygon fill="#FFFFFF" points="37.788,1.159 38.799,3.206 41.059,3.535 39.424,5.129 39.81,7.379 37.788,6.316 35.768,7.379 
		36.153,5.129 34.518,3.535 36.777,3.206 	"/>
</g>
</svg>
