<?xml version="1.0" encoding="utf-8"?>
<!-- Generator: Adobe Illustrator 16.0.0, SVG Export Plug-In . SVG Version: 6.00 Build 0)  -->
<!DOCTYPE svg PUBLIC "-//W3C//DTD SVG 1.1//EN" "http://www.w3.org/Graphics/SVG/1.1/DTD/svg11.dtd">
<svg version="1.1" id="Layer_1" xmlns="http://www.w3.org/2000/svg" xmlns:xlink="http://www.w3.org/1999/xlink" x="0px" y="0px"
	 width="22.167px" height="14.667px" viewBox="0 0 22.167 14.667" enable-background="new 0 0 22.167 14.667" xml:space="preserve">
<g>
	<path fill-rule="evenodd" clip-rule="evenodd" fill="#FFFFFF" d="M15.766,14.326c0.394-0.855,0.76-1.547,1.027-2.275
		c0.191-0.512,0.264-1.07,0.361-1.613c0.078-0.432-0.137-0.578-0.564-0.562c-1.336,0.047-2.493-0.414-3.451-1.336
		c-2.514-2.418-1.547-6.443,1.787-7.479c2.641-0.818,5.605,0.754,6.164,3.311c0.266,1.221,0.061,2.426-0.383,3.58
		c-0.945,2.465-2.517,4.473-4.561,6.123C16.068,14.136,15.979,14.185,15.766,14.326z"/>
	<path fill-rule="evenodd" clip-rule="evenodd" fill="#FFFFFF" d="M4.831,14.197c0.23-0.463,0.498-0.889,0.662-1.354
		c0.268-0.762,0.491-1.541,0.688-2.324c0.121-0.482-0.112-0.66-0.623-0.65C3.956,9.902,2.643,9.251,1.682,7.986
		c-1.787-2.352-0.92-5.559,1.787-6.744c2.674-1.172,5.979,0.336,6.637,3.07c0.301,1.25,0.076,2.486-0.381,3.676
		c-0.934,2.43-2.49,4.4-4.485,6.043c-0.081,0.064-0.171,0.119-0.259,0.174C4.959,14.216,4.918,14.203,4.831,14.197z"/>
</g>
</svg>
