<?xml version="1.0" encoding="utf-8"?>
<!-- Generator: Adobe Illustrator 16.0.0, SVG Export Plug-In . SVG Version: 6.00 Build 0)  -->
<!DOCTYPE svg PUBLIC "-//W3C//DTD SVG 1.1//EN" "http://www.w3.org/Graphics/SVG/1.1/DTD/svg11.dtd">
<svg version="1.1" id="Layer_1" xmlns="http://www.w3.org/2000/svg" xmlns:xlink="http://www.w3.org/1999/xlink" x="0px" y="0px"
	 width="25.167px" height="18.333px" viewBox="0 0 25.167 18.333" enable-background="new 0 0 25.167 18.333" xml:space="preserve">
<g>
	<path fill="#FFFFFF" d="M22.558,1.068H2.404c-1.262,0-1.151,1.35-1.151,1.35l-0.002,12.89c0.108,1.439,1.397,1.351,1.397,1.351
		h19.953c1.307,0.133,1.329-1.218,1.329-1.218V2.417C23.931,0.978,22.558,1.068,22.558,1.068z M22.049,15.218L3.18,15.269
		c0,0-0.531-0.25-0.554-0.781V3.304c0,0,0-0.73,0.51-0.797l18.491-0.066c0,0,0.887,0,0.864,0.664l0.022,11.76
		C22.514,14.865,22.491,15.44,22.049,15.218z"/>
	<path fill="#FFFFFF" d="M6.966,13.105c0,0.391-0.317,0.708-0.708,0.708l0,0c-0.392,0-0.709-0.317-0.709-0.708V4.63
		c0-0.393,0.317-0.709,0.709-0.709l0,0c0.391,0,0.708,0.316,0.708,0.709V13.105z"/>
</g>
</svg>
