<?xml version="1.0" encoding="utf-8"?>
<!-- Generator: Adobe Illustrator 16.0.0, SVG Export Plug-In . SVG Version: 6.00 Build 0)  -->
<!DOCTYPE svg PUBLIC "-//W3C//DTD SVG 1.1//EN" "http://www.w3.org/Graphics/SVG/1.1/DTD/svg11.dtd">
<svg version="1.1" id="Layer_1" xmlns="http://www.w3.org/2000/svg" xmlns:xlink="http://www.w3.org/1999/xlink" x="0px" y="0px"
	 width="22.2666016px" height="22.0717773px" viewBox="0 0 22.2666016 22.0717773"
	 enable-background="new 0 0 22.2666016 22.0717773" xml:space="preserve">
<g opacity="0.8">
	<path fill="#51FF00" d="M9.2207031,14.7954102c0-0.3964844,0.0371094-0.78125,0.1054688-1.15625
		c-2.2617188-0.6816406-3.9921875-2.5864258-4.4238281-4.9458008c-2.6220703,0.7900391-4.53125,3.2231445-4.53125,6.1020508
		c0,3.5175781,2.8515625,6.3710938,6.3710938,6.3710938c1.7197266,0,3.2783203-0.6816406,4.4248047-1.7890625
		C9.9667969,18.2172852,9.2207031,16.5942383,9.2207031,14.7954102z"/>
	<path fill="#0062FF" d="M17.4316406,8.6933594C17,11.0527344,15.2695312,12.9575195,13.0078125,13.6391602
		c0.0683594,0.375,0.1054688,0.7597656,0.1054688,1.15625c0,1.7988281-0.7460938,3.421875-1.9462891,4.5820312
		c1.1464844,1.1074219,2.7050781,1.7890625,4.4248047,1.7890625c3.5195312,0,6.3710938-2.8535156,6.3710938-6.3710938
		C21.9628906,11.9165039,20.0537109,9.4833984,17.4316406,8.6933594z"/>
	<path fill="#4AEEFF" d="M13.1132812,14.7954102c0-0.3964844-0.0371094-0.78125-0.1054688-1.15625
		c-0.5830078,0.1757812-1.2011719,0.2695312-1.8408203,0.2695312s-1.2578125-0.09375-1.8408203-0.2695312
		c-0.0683594,0.375-0.1054688,0.7597656-0.1054688,1.15625c0,1.7988281,0.7460938,3.421875,1.9462891,4.5820312
		C12.3671875,18.2172852,13.1132812,16.5942383,13.1132812,14.7954102z"/>
	<path fill="#FF4D56" d="M11.1669922,10.2119141c1.1464844-1.1064453,2.7050781-1.7890625,4.4248047-1.7890625
		c0.640625,0,1.2578125,0.0947266,1.8398438,0.2705078c0.0693359-0.375,0.1074219-0.7607422,0.1074219-1.15625
		c0-3.5185547-2.8535156-6.3710938-6.3720703-6.3710938S4.7949219,4.0185547,4.7949219,7.5371094
		c0,0.3955078,0.0380859,0.78125,0.1074219,1.15625C5.484375,8.5175781,6.1015625,8.4228516,6.7421875,8.4228516
		C8.4619141,8.4228516,10.0205078,9.1054688,11.1669922,10.2119141z"/>
	<path fill="#FFFA52" d="M9.3261719,13.6391602c0.2451172-1.3339844,0.9042969-2.5229492,1.8408203-3.4272461
		c-1.1464844-1.1064453-2.7050781-1.7890625-4.4248047-1.7890625c-0.640625,0-1.2578125,0.0947266-1.8398438,0.2705078
		C5.3339844,11.0527344,7.0644531,12.9575195,9.3261719,13.6391602z"/>
	<path fill="#BB3BFF" d="M11.1669922,10.2119141c0.9365234,0.9042969,1.5957031,2.0932617,1.8408203,3.4272461
		C15.2695312,12.9575195,17,11.0527344,17.4316406,8.6933594c-0.5820312-0.1757812-1.1992188-0.2705078-1.8398438-0.2705078
		C13.8720703,8.4228516,12.3134766,9.1054688,11.1669922,10.2119141z"/>
	<path fill="#FFFFFF" d="M11.1669922,10.2119141c-0.9365234,0.9042969-1.5957031,2.0932617-1.8408203,3.4272461
		c0.5830078,0.1757812,1.2011719,0.2695312,1.8408203,0.2695312s1.2578125-0.09375,1.8408203-0.2695312
		C12.7626953,12.3051758,12.1035156,11.1162109,11.1669922,10.2119141z"/>
</g>
</svg>
