<?xml version="1.0" encoding="utf-8"?>
<!-- Generator: Adobe Illustrator 16.0.0, SVG Export Plug-In . SVG Version: 6.00 Build 0)  -->
<!DOCTYPE svg PUBLIC "-//W3C//DTD SVG 1.1//EN" "http://www.w3.org/Graphics/SVG/1.1/DTD/svg11.dtd">
<svg version="1.1" id="Layer_1" xmlns="http://www.w3.org/2000/svg" xmlns:xlink="http://www.w3.org/1999/xlink" x="0px" y="0px"
	 width="19.479px" height="21.464px" viewBox="0 0 19.479 21.464" enable-background="new 0 0 19.479 21.464" xml:space="preserve">
<g>
	<path fill="#71CC71" d="M10.097,3.551c-4.746,0-8.594,3.848-8.594,8.594c0,4.747,3.848,8.594,8.594,8.594s8.594-3.848,8.594-8.594
		C18.691,7.399,14.843,3.551,10.097,3.551z M10.097,18.864c-3.711,0-6.719-3.008-6.719-6.719c0-3.71,3.008-6.719,6.719-6.719
		s6.719,3.009,6.719,6.719C16.815,15.856,13.808,18.864,10.097,18.864z"/>
	<rect x="7.284" y="0.74" fill="#71CC71" width="5.625" height="1.875"/>
	<rect x="9.16" y="7.302" fill="#71CC71" width="1.875" height="5.703"/>
	<polygon fill="#71CC71" points="14.941,5.426 16.815,3.943 18.144,5.426 16.542,6.991 	"/>
</g>
</svg>
