<?xml version="1.0" encoding="utf-8"?>
<!-- Generator: Adobe Illustrator 16.0.0, SVG Export Plug-In . SVG Version: 6.00 Build 0)  -->
<!DOCTYPE svg PUBLIC "-//W3C//DTD SVG 1.1//EN" "http://www.w3.org/Graphics/SVG/1.1/DTD/svg11.dtd">
<svg version="1.1" id="Layer_1" xmlns="http://www.w3.org/2000/svg" xmlns:xlink="http://www.w3.org/1999/xlink" x="0px" y="0px"
	 width="17.9375px" height="24.8125px" viewBox="0 0 17.9375 24.8125" enable-background="new 0 0 17.9375 24.8125"
	 xml:space="preserve">
<g>
	<circle fill="#666666" cx="13.6425781" cy="10.96875" r="2.578125"/>
	<circle fill="#666666" cx="8.4863281" cy="20.9023438" r="2.578125"/>
	<rect x="13.1123047" y="5.7011719" fill="#666666" width="0.9169922" height="4.6123047"/>
	<rect x="8.0283203" y="15.4697266" fill="#666666" width="0.9169922" height="4.6123047"/>
	<rect x="2.7714844" y="11.6884766" fill="#666666" width="0.9160156" height="4.6123047"/>
	<rect x="4.8769531" y="10.5097656" fill="#666666" width="7.0322266" height="0.9169922"/>
	<rect x="2.7714844" y="15.4462891" fill="#666666" width="6.1738281" height="0.9160156"/>
	<polygon fill="#666666" points="5.7314453,10.8193359 3.2294922,13.4355469 0.7470703,10.9677734 3.2636719,8.5205078 	"/>
	<path fill="#666666" d="M17.2089844,3.7529297c0,1.2548828-1.2080078,2.2724609-2.6992188,2.2724609H3.4462891
		c-1.4912109,0-2.6992188-1.0175781-2.6992188-2.2724609l0,0c0-1.2548828,1.2080078-2.2724609,2.6992188-2.2724609h11.0634766
		C16.0009766,1.4804688,17.2089844,2.4980469,17.2089844,3.7529297L17.2089844,3.7529297z"/>
</g>
</svg>
